# xmcd
#
# Track frame offsets:
#	150
#	15704
#	29323
#	44282
#	62984
#	81042
#	100030
#	115584
#	129203
#	144164
#	162865
#	180924
#
# Disc length: 2665 seconds
#
# Revision: 1
# Processed by: cddbd v1.5.2PL0 Copyright (c) Steve Scherf et al.
# Submitted via: audiograbber 1.83.01
#
DISCID=870a670c
DTITLE=Various Artist - CB20062 Hot Hits Vol. 62
DYEAR=1900
DGENRE=Country
TTITLE0=Billy Ray Cyrus - Busy Man (Vocals)
TTITLE1=Ken Mellons - Bundle Of Nerves (Vocals)
TTITLE2=Lisa Brokop - When You Get To Be You (Vocals)
TTITLE3=Chad Brock - Ordinary Life (Vocals)
TTITLE4=Dolly Parton - The Salt In My Tears (Vocals)
TTITLE5=Garth Brooks - It's Your Song (Vocals)
TTITLE6=Billy Ray Cyrus - Busy Man
TTITLE7=Ken Mellons - Bundle Of Nerves
TTITLE8=Lisa Brokop - When You Get To Be You
TTITLE9=Chad Brock - Ordinary Life
TTITLE10=Dolly Parton - The Salt In My Tears
TTITLE11=Garth Brooks - It's Your Song
EXTD=
EXTT0=
EXTT1=
EXTT2=
EXTT3=
EXTT4=
EXTT5=
EXTT6=
EXTT7=
EXTT8=
EXTT9=
EXTT10=
EXTT11=
PLAYORDER=
